<?xml version="1.0" encoding="UTF-8"?><svg xmlns="http://www.w3.org/2000/svg" viewBox="0 0 640 640"><defs><style>.d{fill:#fff;}.e{isolation:isolate;}.f{fill:#3350de;}.g{fill:#ed9900;}.h{fill:#114567;}.i,.j{mix-blend-mode:multiply;}.i,.k{fill:#0b1d74;}.l{fill:#3282b8;}.m{fill:#f85523;}</style></defs><g class="e"><g id="a"/><g id="b"/><g id="c"><g><polygon class="d" points="589.8 142.44 524.24 175.49 524.23 175.49 524.16 175.53 491.97 191.76 427.37 224.32 427.32 224.34 427.19 224.41 385.69 245.33 373.13 251.66 320.1 278.4 320.09 278.4 319.91 278.32 320.03 227.91 320.06 227.89 307.86 221.74 307.81 221.72 307.8 221.72 257.43 196.33 257.34 234.38 257.31 246.76 203.86 219.82 203.86 169.33 138.29 136.27 138.29 186.76 115.68 175.35 115.68 162.87 115.69 124.88 100.44 117.2 100.57 117.13 111.51 111.62 112.69 111.03 174.19 80.03 183.26 75.46 185.23 74.47 230.42 97.26 230.53 97.3 241.58 102.87 264.53 114.45 264.69 114.51 320.05 142.42 320.09 142.45 378.7 112.9 403.39 100.46 413.27 95.47 413.28 95.47 413.67 95.28 453.51 75.18 454.94 74.47 455.9 74.95 527.42 111 527.82 111.2 539.64 117.16 539.69 117.18 577.4 136.19 589.8 142.44"/><polygon class="l" points="115.68 175.35 138.29 186.76 138.29 187.06 115.68 175.59 115.68 175.35"/><polygon class="l" points="203.86 219.82 257.31 246.76 257.31 247.49 203.86 220.35 203.86 219.82"/><polygon class="l" points="320.09 278.4 320.09 279.44 319.91 279.53 319.91 278.32 320.09 278.4"/><polygon class="k" points="373.72 237.78 578.54 135.62 589.8 142.44 373.12 251.96 373.72 237.78"/><polygon class="m" points="589.86 91.89 589.8 142.44 548.19 214.5 522.66 258.71 372.67 518.45 359.05 542.03 344.36 567.46 320.09 609.51 320.09 279.44 319.91 279.53 319.91 278.32 320.03 227.91 320.06 227.89 320.08 227.88 320.09 227.88 332.3 221.73 385.76 194.8 385.72 231.79 385.69 245.33 427.19 224.41 427.37 173.8 492.52 140.96 491.97 191.76 524.16 175.53 524.23 175.49 524.23 124.92 589.86 91.89"/><g class="j"><polygon class="g" points="473.63 283.51 522.66 258.7 548.19 214.5 473.63 251.85 473.63 283.51"/></g><g class="j"><polygon class="g" points="421.37 248.5 368.17 274.58 368.17 308.29 421.37 279.77 421.37 248.5"/></g><g class="j"><polygon class="g" points="415.91 316.66 415.87 347.45 320.09 398.88 320.09 365.17 415.91 316.66"/></g><g class="j"><polygon class="g" points="368.16 493.26 320.09 519.14 320.09 485.44 367.95 462.72 368.16 493.26"/></g><g class="j"><polygon class="g" points="372.67 518.45 344.38 531.9 344.36 567.46 359.05 542.03 372.67 518.45"/></g><g class="j"><polygon class="g" points="437.55 364.48 395.06 387.33 395.06 421.04 437.58 394.92 437.55 364.48"/></g><polygon class="f" points="385.76 194.8 332.32 221.74 320.09 227.91 320.06 227.89 307.86 221.74 307.86 221.73 320.05 215.58 320.08 215.56 373.48 188.61 385.76 194.8"/><polygon class="f" points="492.52 140.99 480.23 134.79 415.18 167.59 427.34 173.84 492.52 140.99"/><polygon class="k" points="415.18 167.59 415.17 218.16 427.38 224.37 427.41 173.81 415.18 167.59"/><polygon class="k" points="512.01 118.76 512.13 169.27 524.24 175.57 524.25 124.99 512.01 118.76"/><polygon class="k" points="128.02 169.09 138.29 174.28 138.29 187.06 115.68 175.59 115.68 162.87 128.02 169.09"/><polygon class="k" points="257.34 234.38 257.31 246.76 257.31 247.49 203.86 220.35 203.86 207.38 216 213.51 257.34 234.38"/><polygon class="l" points="257.43 196.33 307.81 221.72 307.8 221.72 257.43 196.33"/><polygon class="l" points="320.1 278.4 320.1 279.84 320.09 279.84 320.09 279.44 319.91 279.53 319.91 278.32 320.03 227.91 320.06 227.89 307.86 221.74 307.81 221.72 307.86 221.73 320.08 227.88 320.09 227.89 320.09 227.91 320.1 278.4"/><polygon class="k" points="320.09 227.88 320.09 227.91 320.06 227.89 307.86 221.74 307.81 221.72 307.8 221.72 257.43 196.33 269.68 190.16 320.05 215.55 320.05 215.58 320.09 227.88"/><polygon class="f" points="230.5 108.41 230.59 64.46 174.2 36.03 174.2 80.03 230.5 108.41"/><polygon class="m" points="241.6 58.91 241.58 102.87 230.5 108.41 230.59 64.46 241.6 58.91"/><polygon class="m" points="184.73 40.81 73.45 91.66 82.92 96 118.1 115.23 182.9 83.86 184.73 40.81"/><polygon class="k" points="241.59 58.9 230.58 64.45 184.35 41.15 73.98 91.52 82.62 95.87 83.21 96.17 112.69 111.03 119.6 114.5 128.1 118.79 115.7 124.88 115.69 124.88 100.44 117.2 50.14 91.85 62.35 85.66 174.19 36.03 185.2 30.49 241.59 58.9"/><polygon class="k" points="216.11 163.16 203.86 169.33 138.29 136.27 150.53 130.11 216.11 163.16"/><polygon class="m" points="216.11 163.16 216.09 213.46 216 213.51 203.86 219.8 203.86 169.33 216.11 163.16"/><polygon class="f" points="320.09 279.44 320.09 609.51 50.36 142.44 50.14 91.85 100.44 117.2 115.69 124.88 115.68 162.87 115.68 175.59 138.29 187.06 138.29 136.27 203.86 169.33 203.86 220.35 257.31 247.49 257.31 246.76 257.34 234.38 257.43 196.33 307.8 221.72 307.81 221.72 307.86 221.74 320.06 227.89 320.03 227.91 319.91 278.32 319.91 279.53 320.09 279.44"/><polygon class="l" points="115.69 124.71 115.69 124.88 100.44 117.2 50.14 91.85 100.57 117.13 115.69 124.71"/><polygon class="m" points="128.1 118.79 128.08 169.06 128.02 169.09 115.68 175.35 115.68 162.87 115.7 124.88 115.7 124.72 128.1 118.79"/><polygon class="h" points="73.98 91.52 73.91 91.55 62.35 85.66 73.87 91.46 73.98 91.52"/><polygon class="i" points="332.32 221.74 320.09 227.91 320.06 227.89 307.86 221.74 307.81 221.72 320.05 215.55 320.08 215.56 332.3 221.73 332.32 221.74"/><g><polygon class="m" points="320.04 151.97 320.08 109.57 378.67 80.03 378.7 122.45 320.04 151.97"/><polygon class="f" points="378.67 80.03 367.79 74.46 309.2 104.03 320.08 109.57 378.67 80.03"/></g><g><polygon class="f" points="320.04 151.97 320.08 109.57 264.54 81.57 264.54 124 320.04 151.97"/><polygon class="k" points="264.54 81.57 275.13 75.81 320.15 98.5 309.2 104.03 264.54 81.57"/></g><polygon class="i" points="309.2 104.03 320.08 109.57 331.1 104.02 320.15 98.5 309.2 104.03"/><polygon class="m" points="413.01 105.84 414.12 62.7 456.25 39.47 455.83 82.02 413.01 105.84"/><polygon class="f" points="589.86 91.89 524.23 124.99 512.02 118.77 565.57 91.78 453.62 42.2 414.07 62.7 403.18 57.17 453.92 31.13 464.78 36.38 464.79 36.38 464.81 36.39 577.59 85.71 589.86 91.89"/><polygon class="k" points="403.19 57.18 403.38 100.94 413.05 105.14 414.09 62.69 403.19 57.18"/><polygon class="k" points="453.58 42.18 453.5 83.26 523.31 113.53 565.45 91.77 453.58 42.18"/><polygon class="h" points="73.98 91.52 73.91 91.55 62.35 85.66 73.87 91.46 73.98 91.52"/><polygon class="k" points="230.59 95.12 264.54 111.73 264.54 100.7 241.5 90.17 230.59 95.12"/><polygon class="k" points="413.27 93.03 378.7 110.78 378.7 99.65 403.36 87.69 413.27 93.03"/><polygon class="f" points="230.41 94.92 230.5 108.41 264.54 124 264.73 111.69 230.41 94.92"/><polygon class="m" points="413.81 92.79 413.05 105.81 378.7 122.45 378.7 110.22 413.81 92.79"/></g></g></g></svg>