<?xml version="1.0" encoding="UTF-8"?><svg xmlns="http://www.w3.org/2000/svg" viewBox="0 0 640 640"><defs><style>.d{fill:#fff;}.e{fill:#dee6fc;}.f{isolation:isolate;}.g{fill:#3350de;}.h{fill:#ed9900;}.i{fill:#114567;}.j,.k{mix-blend-mode:multiply;}.j,.l{fill:#0b1d74;}.m{fill:#3282b8;}.n{fill:#f85523;}</style></defs><g class="f"><g id="a"/><g id="b"/><g id="c"><g><rect class="e" width="640" height="640"/><g><g><path class="l" d="M110.28,582.78v-66.61h28.84c5.39,0,9.86,.79,13.4,2.36,3.54,1.57,6.2,3.71,7.97,6.4,1.77,2.7,2.66,5.75,2.66,9.16,0,3.67-1.05,6.79-3.15,9.33-2.1,2.55-4.86,4.4-8.27,5.56,2.28,.6,4.37,1.51,6.25,2.73,1.89,1.23,3.4,2.84,4.54,4.84,1.14,2,1.71,4.48,1.71,7.42,0,1.95-.36,4.02-1.09,6.21-.73,2.18-2,4.23-3.82,6.13s-4.35,3.46-7.59,4.67c-3.24,1.21-7.38,1.81-12.41,1.81h-29.04Zm15.88-52.86v12.71h12.26c3.04,0,5.21-.58,6.5-1.74,1.29-1.16,1.94-2.66,1.94-4.52s-.64-3.31-1.91-4.57c-1.27-1.26-3.42-1.89-6.43-1.89h-12.36Zm0,38.97h12.66c2.68,0,4.72-.51,6.11-1.51,1.39-1.01,2.08-2.48,2.08-4.39s-.65-3.46-1.96-4.62c-1.31-1.16-3.38-1.74-6.23-1.74h-12.66v12.26Z"/><path class="l" d="M170.79,582.78l22.44-66.61h20.2l21.19,66.61h-16.73l-3.62-11.71h-22.98l-3.62,11.71h-16.88Zm24.52-23.48h15.34l-7.55-24.37-7.79,24.37Z"/><path class="l" d="M269.87,584.36c-4.77,0-9.18-.8-13.25-2.41-4.07-1.6-7.38-4.12-9.93-7.55-2.55-3.43-3.95-7.88-4.22-13.38h15.69c0,2.02,.51,3.69,1.54,5.01,1.03,1.33,2.42,2.3,4.19,2.93,1.77,.63,3.73,.94,5.88,.94,1.72,0,3.33-.15,4.84-.45,1.51-.3,2.72-.83,3.65-1.59,.93-.76,1.39-1.8,1.39-3.13,0-1.62-.49-2.83-1.46-3.62-.98-.8-2.74-1.7-5.29-2.73l-14.49-6.3c-4.77-2.05-8.47-4.47-11.12-7.25-2.65-2.78-3.97-6.57-3.97-11.37,0-5.63,2.29-10.17,6.88-13.63,4.58-3.46,10.86-5.19,18.84-5.19s14.33,1.91,18.66,5.73c4.33,3.82,6.77,9.27,7.3,16.36h-15.59c-.4-2.18-1.37-4.02-2.9-5.51-1.54-1.49-4.03-2.23-7.47-2.23-2.48,0-4.48,.45-6.01,1.36-1.52,.91-2.28,2.04-2.28,3.4,0,1.26,.49,2.25,1.46,2.98,.98,.73,2.44,1.52,4.39,2.38l15.34,6.5c5.1,2.22,8.89,4.81,11.39,7.79,2.5,2.98,3.75,6.55,3.75,10.72,0,4.47-1.07,8.2-3.2,11.19-2.13,3-5.23,5.24-9.28,6.75-4.05,1.51-8.96,2.26-14.72,2.26Z"/><path class="l" d="M303.72,529.91v-13.75h54.85v13.75h-22.98l3.57-3.58v56.44h-15.88v-56.44l3.57,3.58h-23.13Z"/><path class="l" d="M367.5,582.78v-66.61h15.88v66.61h-15.88Z"/><path class="l" d="M427.61,584.36c-6.32,0-11.84-1.33-16.55-3.99-4.72-2.66-8.38-6.6-10.99-11.81-2.61-5.21-3.92-11.64-3.92-19.28s1.31-14.32,3.92-19.43c2.61-5.11,6.28-8.92,10.99-11.42,4.72-2.5,10.23-3.75,16.55-3.75s11.95,1.31,16.7,3.92,8.43,6.49,11.05,11.61c2.61,5.13,3.92,11.49,3.92,19.06s-1.31,14.27-3.92,19.48c-2.62,5.21-6.3,9.12-11.05,11.71-4.75,2.6-10.32,3.9-16.7,3.9Zm0-14.25c4.63,0,8.34-1.83,11.12-5.48,2.78-3.66,4.17-8.81,4.17-15.46,0-6.25-1.39-11.19-4.17-14.82-2.78-3.62-6.49-5.44-11.12-5.44s-8.14,1.81-10.92,5.44c-2.78,3.62-4.17,8.59-4.17,14.92s1.39,11.71,4.17,15.36c2.78,3.66,6.42,5.48,10.92,5.48Z"/><path class="l" d="M471.59,516.16h16.58l26.75,40.31h-1.09v-40.31h15.88v66.61h-15.34l-29.53-44.28h2.63v44.28h-15.88v-66.61Z"/></g><g><polygon class="d" points="508.15 133.73 462.41 156.79 462.4 156.79 462.36 156.82 439.9 168.14 394.84 190.85 394.8 190.87 394.72 190.92 365.76 205.51 357 209.92 320.01 228.58 320 228.58 319.88 228.52 319.96 193.35 319.98 193.35 311.47 189.05 311.44 189.04 311.43 189.04 276.29 171.32 276.23 197.87 276.21 206.51 238.92 187.71 238.92 152.49 193.18 129.43 193.18 164.65 177.41 156.69 177.41 147.99 177.41 121.48 166.78 116.12 166.86 116.08 174.5 112.24 175.32 111.82 218.22 90.2 224.55 87.01 225.92 86.32 257.45 102.21 257.52 102.24 265.23 106.13 281.25 114.2 281.35 114.25 319.97 133.72 320 133.74 360.89 113.13 378.11 104.45 385 100.97 385.01 100.97 385.28 100.83 413.07 86.82 414.07 86.32 414.74 86.65 464.63 111.8 464.91 111.94 473.16 116.1 473.19 116.11 499.5 129.37 508.15 133.73"/><polygon class="m" points="177.41 156.69 193.18 164.65 193.18 164.86 177.41 156.86 177.41 156.69"/><polygon class="m" points="238.92 187.71 276.21 206.51 276.21 207.02 238.92 188.08 238.92 187.71"/><polygon class="m" points="320 228.58 320 229.31 319.88 229.36 319.88 228.52 320 228.58"/><polygon class="l" points="357.41 200.24 500.29 128.98 508.15 133.73 356.99 210.13 357.41 200.24"/><polygon class="n" points="508.19 98.47 508.15 133.73 479.12 184 461.31 214.84 356.68 396.04 347.18 412.48 336.93 430.22 320 459.56 320 229.31 319.88 229.36 319.88 228.52 319.96 193.35 319.98 193.35 319.99 193.34 320 193.34 328.52 189.04 365.81 170.26 365.78 196.06 365.76 205.51 394.72 190.92 394.84 155.61 440.29 132.7 439.9 168.14 462.36 156.82 462.4 156.79 462.4 121.51 508.19 98.47"/><g class="k"><polygon class="h" points="427.11 232.14 461.31 214.84 479.12 184 427.11 210.06 427.11 232.14"/></g><g class="k"><polygon class="h" points="390.65 207.72 353.54 225.91 353.54 249.43 390.65 229.53 390.65 207.72"/></g><g class="k"><polygon class="h" points="386.84 255.26 386.82 276.75 320 312.62 320 289.1 386.84 255.26"/></g><g class="k"><polygon class="h" points="353.53 378.46 320 396.52 320 373.01 353.39 357.16 353.53 378.46"/></g><g class="k"><polygon class="h" points="356.68 396.03 336.95 405.42 336.93 430.22 347.18 412.48 356.68 396.03"/></g><g class="k"><polygon class="h" points="401.94 288.62 372.3 304.57 372.3 328.08 401.96 309.86 401.94 288.62"/></g><polygon class="g" points="365.81 170.26 328.53 189.05 320 193.35 319.98 193.35 311.47 189.05 311.47 189.04 319.97 184.75 319.99 184.74 357.25 165.94 365.81 170.26"/><polygon class="g" points="440.28 132.72 431.71 128.4 386.33 151.27 394.81 155.64 440.28 132.72"/><polygon class="l" points="386.34 151.27 386.33 186.56 394.84 190.89 394.87 155.62 386.34 151.27"/><polygon class="l" points="453.88 117.22 453.97 152.45 462.41 156.85 462.42 121.56 453.88 117.22"/><polygon class="l" points="186.02 152.33 193.18 155.94 193.18 164.86 177.41 156.86 177.41 147.99 186.02 152.33"/><polygon class="l" points="276.23 197.87 276.21 206.51 276.21 207.02 238.92 188.08 238.92 179.03 247.39 183.31 276.23 197.87"/><polygon class="m" points="276.29 171.32 311.44 189.04 311.43 189.04 276.29 171.32"/><polygon class="m" points="320.01 228.58 320.01 229.58 320 229.58 320 229.31 319.88 229.36 319.88 228.52 319.96 193.35 319.98 193.35 311.47 189.05 311.44 189.04 311.47 189.04 319.99 193.34 320 193.35 320 193.35 320.01 228.58"/><polygon class="l" points="320 193.34 320 193.35 319.98 193.35 311.47 189.05 311.44 189.04 311.43 189.04 276.29 171.32 284.84 167.02 319.97 184.73 319.97 184.75 320 193.34"/><polygon class="g" points="257.51 109.99 257.57 79.33 218.23 59.5 218.23 90.19 257.51 109.99"/><polygon class="n" points="265.25 75.46 265.24 106.13 257.51 109.99 257.57 79.33 265.25 75.46"/><polygon class="n" points="225.58 62.84 147.95 98.31 154.55 101.34 179.09 114.76 224.3 92.87 225.58 62.84"/><polygon class="l" points="265.24 75.46 257.56 79.33 225.31 63.08 148.32 98.21 154.35 101.25 154.76 101.46 175.32 111.82 180.14 114.24 186.07 117.24 177.42 121.48 177.41 121.48 166.78 116.12 131.69 98.44 140.21 94.12 218.22 59.51 225.9 55.64 265.24 75.46"/><polygon class="l" points="247.46 148.19 238.92 152.49 193.18 129.43 201.72 125.13 247.46 148.19"/><polygon class="n" points="247.46 148.19 247.45 183.28 247.39 183.31 238.92 187.7 238.92 152.49 247.46 148.19"/><polygon class="g" points="320 229.31 320 459.56 131.84 133.73 131.69 98.44 166.78 116.12 177.41 121.48 177.41 147.99 177.41 156.86 193.18 164.86 193.18 129.43 238.92 152.49 238.92 188.08 276.21 207.02 276.21 206.51 276.23 197.87 276.29 171.32 311.43 189.04 311.44 189.04 311.47 189.05 319.98 193.35 319.96 193.35 319.88 228.52 319.88 229.36 320 229.31"/><polygon class="m" points="177.41 121.37 177.41 121.48 166.78 116.12 131.69 98.44 166.86 116.08 177.41 121.37"/><polygon class="n" points="186.07 117.24 186.05 152.31 186.02 152.33 177.41 156.69 177.41 147.99 177.42 121.48 177.42 121.38 186.07 117.24"/><polygon class="i" points="148.32 98.21 148.27 98.23 140.21 94.12 148.24 98.17 148.32 98.21"/><polygon class="j" points="328.53 189.05 320 193.35 319.98 193.35 311.47 189.05 311.44 189.04 319.97 184.73 319.99 184.74 328.52 189.04 328.53 189.05"/><g><polygon class="n" points="319.97 140.38 319.99 110.81 360.87 90.2 360.89 119.79 319.97 140.38"/><polygon class="g" points="360.87 90.2 353.28 86.32 312.4 106.94 319.99 110.81 360.87 90.2"/></g><g><polygon class="g" points="319.97 140.38 319.99 110.81 281.25 91.27 281.25 120.87 319.97 140.38"/><polygon class="l" points="281.25 91.27 288.64 87.25 320.05 103.08 312.4 106.94 281.25 91.27"/></g><polygon class="j" points="312.4 106.94 319.99 110.81 327.68 106.93 320.05 103.08 312.4 106.94"/><polygon class="n" points="384.82 108.2 385.59 78.11 414.98 61.9 414.69 91.59 384.82 108.2"/><polygon class="g" points="508.19 98.47 462.4 121.56 453.89 117.22 491.24 98.39 413.15 63.81 385.56 78.11 377.96 74.25 413.36 56.09 420.93 59.75 420.94 59.75 420.95 59.75 499.63 94.16 508.19 98.47"/><polygon class="l" points="377.97 74.26 378.11 104.79 384.85 107.71 385.57 78.1 377.97 74.26"/><polygon class="l" points="413.12 63.79 413.06 92.45 461.76 113.56 491.16 98.39 413.12 63.79"/><polygon class="i" points="148.32 98.21 148.27 98.23 140.21 94.12 148.24 98.17 148.32 98.21"/><polygon class="l" points="257.57 100.73 281.25 112.31 281.25 104.62 265.18 97.27 257.57 100.73"/><polygon class="l" points="385 99.27 360.89 111.65 360.89 103.88 378.09 95.54 385 99.27"/><polygon class="g" points="257.44 100.58 257.51 109.99 281.25 120.87 281.38 112.28 257.44 100.58"/><polygon class="n" points="385.38 99.1 384.85 108.18 360.89 119.79 360.89 111.25 385.38 99.1"/></g></g></g></g></g></svg>